<svg xmlns="http://www.w3.org/2000/svg" id="&#x56FE;&#x5C42;_1" viewBox="0 0 544 544">
  <defs>
    <style>.cls-1{fill:#00559d;}.cls-2{fill:#fff;}</style>
  </defs>
  <rect class="cls-1" width="544" height="544" rx="160"></rect>
  <polygon class="cls-2" points="258.7 308.04 310.82 308.04 310.82 327.35 223.76 327.35 275.88 234.33 223.76 234.33 223.76 215.01 310.82 215.01 258.7 308.04"></polygon>
  <polygon class="cls-2" points="402.99 308.04 402.99 327.35 334.05 327.35 334.05 215.01 356.99 215.01 356.99 308.04 402.99 308.04"></polygon>
  <polygon class="cls-2" points="494.78 308.04 494.78 327.35 425.84 327.35 425.84 215.01 448.78 215.01 448.78 308.04 494.78 308.04"></polygon>
  <path class="cls-2" d="M128.852,285.1637a36.72416,36.72416,0,0,0-14.5-70.1323v-.0181H49.2197l14.062,19.3179v92.5293H84.7676V234.3312h28.8408a17.41155,17.41155,0,0,1,1.1953,34.7822H90.2353l.0337.0454h-.0337l42.0596,57.7017h26.9268Z"></path>
  <path class="cls-2" d="M180.2303,201.7402c-.1402-.2099-.2801-.42-.3999-.6299C179.9202,201.2402,180.0603,201.4603,180.2303,201.7402Z"></path>
  <path class="cls-2" d="M194.7903,188.3903a10.94843,10.94843,0,0,1-3.5801-2.19s.1001.03.2701.08a9.09409,9.09409,0,0,1,1.6799.74A6.27927,6.27927,0,0,1,194.7903,188.3903Z"></path>
  <path class="cls-2" d="M196.1101,188.6302a1.19959,1.19959,0,0,1-.4599.0401.49419.49419,0,0,1-.3301-.2,2.23681,2.23681,0,0,1-.5-.07v-.11l.4602.12.1799.05Z"></path>
  <path class="cls-2" d="M218.38009,180.64028c.89013-2.82007,1.37011-3.90009.41015-3.99-.53-.05-2.48,3.77-3.83007,5.7s-.81983,3.48-2.66993,7.44c-1.14013,2.43-2.95019,4.86-4.72021,8.2099-2.92969,5.5401-3.56983,5.13-5.04981,6.5401a29.046,29.046,0,0,1-2.77978,2.2699c-.18018.13-.37012.27008-.5603.39007-1.26.82-4.3,2.60993-5.2,1.41993-.3501-.46991-1.07007-1.84992,1.67993-3.52991a3.97423,3.97423,0,0,0,1.67016-2.71008,17.66692,17.66692,0,0,1,.57984-2.75c.33032-.67994,1.07007-.84992.31006-2.42994a13.19835,13.19835,0,0,1-1.24-3.16c-.12012-.59-.22-1.1701-.32007-1.69.02-.09009.04-.18.06006-.28009.54-2.86994-.61011-3.44-.61011-3.44a2.25982,2.25982,0,0,0,.51025-.17994,3.08654,3.08654,0,0,1-.62012-.09,2.09178,2.09178,0,0,0,1.33985-.82,6.5197,6.5197,0,0,1-1.58985.3999c.77-.13989,1.14991-1.04992,1.29-1.5a1.42787,1.42787,0,0,1-1.29.65009,20.06084,20.06084,0,0,1-4.27-.81c-.16993-.05-.27-.08-.27-.08a10.59978,10.59978,0,0,0-9.33008,1.72c-4.40991,3.31988-4.58985,8.8399-2.13965,13.05l.00976.01c.01.0199.04.06.08008.13.08985.12988.23.35.39991.62988a.176.176,0,0,1,.04.05011,12.3214,12.3214,0,0,1,1.76,3.94989,4.58691,4.58691,0,0,1-.12011,1.5401,2.27249,2.27249,0,0,0,.65014-.57,1.70292,1.70292,0,0,0,.37989-.87,1.98592,1.98592,0,0,1-.08008,1,1.2106,1.2106,0,0,0,.73-.37,3.1276,3.1276,0,0,1,.07007.98,1.87769,1.87769,0,0,1-.05.39,4.14669,4.14669,0,0,1-1.46,2.45c-1.60987,1.41-3.17993,1.5199-6.04,2.99-2.48975,1.28992-4.56983,1.94-5.45,8.18-.84986,6.04993-2.09009,14.26-2.3,18.46991-.2,4.3501.21,5.30011,2.20019,16.05011.90992,4.8899,2.73975,5.85,5.73975,7.33991.51025,5.39007.95019,28.7301-.43994,37.49-.45,2.83008-.61963,15.05011-.51,17.18.11011,2.13,1.05,1.36011.68017,3.5401-.7102,4.18-.4602,5.82,1.11011,5.82h9.56983c1.78027,0,4.62011-1.64.35986-6.7301-.75-.8899,1.05029-1.05,1.22021-2.28992.17994-1.24-.6101-4.41-.69018-7.01007-.17993-5.58991.05-11.04993.05-12.65991,0-2.25.97021-15.48011,1.68017-24.8501a106.64466,106.64466,0,0,1,1.39991,21.36011c-.38013,5.62-1.1001,20.13-.98,21.56a6.05317,6.05317,0,0,0,1.56006,2.9599s-.63012,3.75-1,5.56c-.3,1.45007,1.00977,2.1001,3.0398,2.1001h11.98022c2.3899,0,2.32984-1.68-.12011-3.44-1.3-.94-5.66016-4.49-5.66016-4.49s2.55005-2.23011,2.57031-3.43012c.02979-1.18988.08985-3.94989.12012-9.46991.03979-9.32.5498-15.34009-.12012-24.53009-.29-3.87-.44018-13.37988-.5-18.18988,2.06983-.39,1.6499-2.6701,1.44971-11.35-.23975-11.09-2.13989-23.23,3.32031-36.04,0-.01.00977-.02.00977-.03009.8999-1.5,1.76-2.89,2.63012-4.5199.14991-.28.51978-3.58.64991-3.82.3601-.69,1.66992-3.33,2.54-4.99.8-1.53,3.07006-7.94,3.78-10.13,1.72-5.32,2.18995-4.72,3.34986-6.65C220.5002,184.34029,218.01021,181.82021,218.38009,180.64028Zm-23.56006,7.76v.02l-.02979-.03A.03629.03629,0,0,0,194.82,188.40029Z"></path>
</svg>